<svg xmlns="http://www.w3.org/2000/svg" xmlns:xlink="http://www.w3.org/1999/xlink" version="1.1" x="0px" y="0px" viewBox="0 0 100 125" style="enable-background:new 0 0 100 100;" xml:space="preserve"><path d="M76.1,6.4c-7.3,0-13.3,5.4-14.3,12.5H11.4c-0.8,0-1.5,0.5-1.8,1.2c-0.3,0.7-0.1,1.6,0.4,2.2l31.8,32v30.2l-16.9,4  c-1.3,0.3-2.1,1.4-1.9,2.7c0.1,1.3,1.2,2.2,2.5,2.2h36.7c1.3,0,2.3-0.9,2.5-2.2c0.2-1.3-0.7-2.4-1.9-2.7l-16.9-4V54.4l21.7-21.9  c2.4,1.8,5.4,2.9,8.7,2.9c8,0,14.5-6.5,14.5-14.5S84.1,6.4,76.1,6.4z M76.1,31.4c-2.1,0-4.1-0.7-5.8-1.8l7.2-7.3  c0.6-0.6,0.7-1.4,0.4-2.2s-1-1.2-1.8-1.2H65.8c0.9-4.8,5.2-8.5,10.3-8.5c5.8,0,10.5,4.7,10.5,10.5S81.9,31.4,76.1,31.4z"/><text x="0" y="115" fill="#000000" font-size="5px" font-weight="bold" font-family="'Helvetica Neue', Helvetica, Arial-Unicode, Arial, Sans-serif">Created by mikicon</text><text x="0" y="120" fill="#000000" font-size="5px" font-weight="bold" font-family="'Helvetica Neue', Helvetica, Arial-Unicode, Arial, Sans-serif">from the Noun Project</text></svg>