<svg width="29" height="42" viewBox="0 0 29 42" fill="none" xmlns="http://www.w3.org/2000/svg">
<path d="M23.0807 4.60325C20.0892 4.60325 17.6641 7.11374 17.6641 10.2105H8.32734L7.10641 4.49905C7.54983 4.30168 7.86104 3.84537 7.86104 3.31433C7.86104 2.60171 7.30321 2.02488 6.61519 2.02488C6.60248 2.02488 6.59028 2.0254 6.57756 2.0254L6.19008 0.21438C6.15855 0.0675408 6.0182 -0.0261415 5.87633 0.0064895C5.73395 0.0391205 5.64445 0.184908 5.67598 0.331747L6.066 2.15645C5.6531 2.36592 5.36884 2.80539 5.36884 3.31433C5.36884 4.01695 5.91243 4.58852 6.58875 4.60273L7.78731 10.2105H0L10.7819 21.2951V39.1911C7.97698 39.2653 5.81582 39.729 5.81582 40.2905C5.81582 40.9037 8.39294 41.4 11.5721 41.4C14.7508 41.4 17.328 40.9037 17.328 40.2905C17.328 39.7295 15.1668 39.2653 12.3619 39.1911V21.2951L19.2689 14.1947C20.2483 15.1983 21.5949 15.8178 23.0807 15.8178C26.0733 15.8178 28.4984 13.3068 28.4984 10.2105C28.4984 7.11426 26.0733 4.60325 23.0807 4.60325ZM19.8588 13.5878L23.0024 10.3563L20.7477 14.5078L19.8588 13.5878ZM21.7947 14.9568L23.0568 10.3L23.0944 10.2611L24.3667 14.9568H21.7947ZM25.4148 14.5078L23.1036 10.2521L23.1214 10.2337L27.2332 12.6252L25.4148 14.5078ZM23.1305 10.2247L23.1433 10.2105H23.0807H18.4955V8.8795L23.0812 10.2105L18.9298 7.79583L20.7482 5.91323L23.0812 10.2105L21.7952 5.46429H24.3678L23.0817 10.2105L25.4158 5.91323L27.2342 7.79583L23.0817 10.2105L27.6685 8.8795V11.5421L23.1305 10.2247Z" fill="#377084"/>
</svg>
