<svg width="24" height="30" viewBox="0 0 24 30" fill="none" xmlns="http://www.w3.org/2000/svg">
<g clip-path="url(#clip0)">
<path d="M9.75 2.25007C5.61675 2.25007 2.25 5.61682 2.25 9.75008C2.25 13.8833 5.61675 17.2501 9.75 17.2501C11.5474 17.2501 13.198 16.6118 14.4917 15.5523L20.4697 21.5303C20.5389 21.6021 20.6217 21.6595 20.7132 21.6989C20.8048 21.7384 20.9033 21.7592 21.003 21.7601C21.1027 21.7611 21.2016 21.7422 21.2939 21.7044C21.3861 21.6667 21.47 21.611 21.5405 21.5405C21.611 21.47 21.6667 21.3861 21.7044 21.2939C21.7422 21.2016 21.7611 21.1027 21.7601 21.003C21.7592 20.9033 21.7384 20.8048 21.6989 20.7132C21.6595 20.6217 21.6021 20.5389 21.5303 20.4697L15.5523 14.4917C16.6118 13.198 17.2501 11.5474 17.2501 9.75C17.2501 5.61675 13.8833 2.25 9.75008 2.25L9.75 2.25007ZM9.75 3.75007C13.0726 3.75007 15.75 6.4275 15.75 9.75008C15.75 13.0727 13.0726 15.7501 9.75 15.7501C6.42743 15.7501 3.75 13.0727 3.75 9.75008C3.75 6.4275 6.42743 3.75007 9.75 3.75007Z" fill="#222222"/>
</g>
<defs>
<clipPath id="clip0">
<rect width="24" height="30" fill="white"/>
</clipPath>
</defs>
</svg>
